<svg xmlns="http://www.w3.org/2000/svg" viewBox="0 0 512 512" width="512" height="512">
<defs>
  <radialGradient id="field" cx="50%" cy="42%" r="65%">
    <stop offset="0%" stop-color="#3A3358"/>
    <stop offset="100%" stop-color="#241F38"/>
  </radialGradient>
  <linearGradient id="starg" x1="0" y1="0" x2="0" y2="1">
    <stop offset="0%" stop-color="#FF5A4D"/>
    <stop offset="100%" stop-color="#D6261D"/>
  </linearGradient>
</defs>
<rect width="512" height="512" fill="#E5332A"/>
<circle cx="256.0" cy="256.0" r="250.0" fill="#1A1726"/>
<circle cx="256.0" cy="256.0" r="234.0" fill="#F2B705"/>
<circle cx="256.0" cy="256.0" r="206.0" fill="#1A1726"/>
<circle cx="256.0" cy="256.0" r="198.0" fill="url(#field)"/>
<g transform="translate(256.0,246.0)">
  <path d="M 114.1,0.0 L 180.5,35.9 L 105.4,43.7 Z" fill="#FFD45E"/>
<path d="M 105.4,43.7 L 153.0,102.2 L 80.7,80.7 Z" fill="#FFD45E"/>
<path d="M 80.7,80.7 L 102.2,153.0 L 43.7,105.4 Z" fill="#FFD45E"/>
<path d="M 43.7,105.4 L 35.9,180.5 L 0.0,114.1 Z" fill="#FFD45E"/>
<path d="M 0.0,114.1 L -35.9,180.5 L -43.7,105.4 Z" fill="#FFD45E"/>
<path d="M -43.7,105.4 L -102.2,153.0 L -80.7,80.7 Z" fill="#FFD45E"/>
<path d="M -80.7,80.7 L -153.0,102.2 L -105.4,43.7 Z" fill="#FFD45E"/>
<path d="M -105.4,43.7 L -180.5,35.9 L -114.1,0.0 Z" fill="#FFD45E"/>
<path d="M -114.1,0.0 L -180.5,-35.9 L -105.4,-43.7 Z" fill="#FFD45E"/>
<path d="M -105.4,-43.7 L -153.0,-102.2 L -80.7,-80.7 Z" fill="#FFD45E"/>
<path d="M -80.7,-80.7 L -102.2,-153.0 L -43.7,-105.4 Z" fill="#FFD45E"/>
<path d="M -43.7,-105.4 L -35.9,-180.5 L -0.0,-114.1 Z" fill="#FFD45E"/>
<path d="M -0.0,-114.1 L 35.9,-180.5 L 43.7,-105.4 Z" fill="#FFD45E"/>
<path d="M 43.7,-105.4 L 102.2,-153.0 L 80.7,-80.7 Z" fill="#FFD45E"/>
<path d="M 80.7,-80.7 L 153.0,-102.2 L 105.4,-43.7 Z" fill="#FFD45E"/>
<path d="M 105.4,-43.7 L 180.5,-35.9 L 114.1,-0.0 Z" fill="#FFD45E"/>
</g>
<circle cx="256.0" cy="246.0" r="106.0" fill="#2B2640" opacity="0.0"/>
<path d="M 256.00,78.00 L 296.49,186.27 L 411.97,191.32 L 321.51,263.29 L 352.40,374.68 L 256.00,310.88 L 159.60,374.68 L 190.49,263.29 L 100.03,191.32 L 215.51,186.27 Z" fill="url(#starg)" stroke="#1A1726" stroke-width="14" stroke-linejoin="round"/>
<path d="M 253.00,154.00 L 274.21,206.81 L 330.99,210.66 L 287.31,247.15 L 301.20,302.34 L 253.00,272.08 L 204.80,302.34 L 218.69,247.15 L 175.01,210.66 L 231.79,206.81 Z" fill="#FF8C82" opacity="0.55"/>
<g>
  <rect x="106.0" y="362.0" width="300" height="78" rx="14" fill="#FFF4E0" stroke="#1A1726" stroke-width="12"/>
  <text x="256.0" y="416.0" font-family="Arial Black, Arial, sans-serif" font-weight="900" font-size="52" fill="#E5332A" text-anchor="middle" letter-spacing="2">VELMORA</text>
</g>
</svg>